<svg id="SvgjsSvg1106" width="288" height="288" xmlns="http://www.w3.org/2000/svg" version="1.1" xmlns:xlink="http://www.w3.org/1999/xlink" xmlns:svgjs="http://svgjs.com/svgjs"><defs id="SvgjsDefs1107"></defs><g id="SvgjsG1108"><svg xmlns="http://www.w3.org/2000/svg" viewBox="0 0 24 24" width="288" height="288"><g data-name="Layer 2" fill="#e2dddd" class="color000 svgShape"><g data-name="external-link" fill="#e2dddd" class="color000 svgShape"><rect width="24" height="24" opacity="0" fill="#e2dddd" class="color000 svgShape"></rect><path d="M20 11a1 1 0 0 0-1 1v6a1 1 0 0 1-1 1H6a1 1 0 0 1-1-1V6a1 1 0 0 1 1-1h6a1 1 0 0 0 0-2H6a3 3 0 0 0-3 3v12a3 3 0 0 0 3 3h12a3 3 0 0 0 3-3v-6a1 1 0 0 0-1-1z" fill="#e2dddd" class="color000 svgShape"></path><path d="M16 5h1.58l-6.29 6.28a1 1 0 0 0 0 1.42 1 1 0 0 0 1.42 0L19 6.42V8a1 1 0 0 0 1 1 1 1 0 0 0 1-1V4a1 1 0 0 0-1-1h-4a1 1 0 0 0 0 2z" fill="#e2dddd" class="color000 svgShape"></path></g></g></svg></g></svg>